<svg width="16" height="17" viewBox="0 0 16 17" fill="none" xmlns="http://www.w3.org/2000/svg">
<path d="M4.64 0H11.36C13.92 0 16 2.21 16 4.93V12.07C16 13.3775 15.5111 14.6315 14.641 15.556C13.7708 16.4806 12.5906 17 11.36 17H4.64C2.08 17 0 14.79 0 12.07V4.93C0 3.62248 0.488856 2.36852 1.35902 1.44396C2.22919 0.519409 3.4094 0 4.64 0ZM4.48 1.7C3.71618 1.7 2.98364 2.02239 2.44353 2.59625C1.90343 3.17011 1.6 3.94844 1.6 4.76V12.24C1.6 13.9315 2.888 15.3 4.48 15.3H11.52C12.2838 15.3 13.0164 14.9776 13.5565 14.4037C14.0966 13.8299 14.4 13.0516 14.4 12.24V4.76C14.4 3.0685 13.112 1.7 11.52 1.7H4.48ZM12.2 2.975C12.4652 2.975 12.7196 3.08694 12.9071 3.2862C13.0946 3.48546 13.2 3.75571 13.2 4.0375C13.2 4.31929 13.0946 4.58954 12.9071 4.7888C12.7196 4.98806 12.4652 5.1 12.2 5.1C11.9348 5.1 11.6804 4.98806 11.4929 4.7888C11.3054 4.58954 11.2 4.31929 11.2 4.0375C11.2 3.75571 11.3054 3.48546 11.4929 3.2862C11.6804 3.08694 11.9348 2.975 12.2 2.975ZM8 4.25C9.06087 4.25 10.0783 4.69777 10.8284 5.4948C11.5786 6.29183 12 7.37283 12 8.5C12 9.62717 11.5786 10.7082 10.8284 11.5052C10.0783 12.3022 9.06087 12.75 8 12.75C6.93913 12.75 5.92172 12.3022 5.17157 11.5052C4.42143 10.7082 4 9.62717 4 8.5C4 7.37283 4.42143 6.29183 5.17157 5.4948C5.92172 4.69777 6.93913 4.25 8 4.25ZM8 5.95C7.36348 5.95 6.75303 6.21866 6.30294 6.69688C5.85286 7.1751 5.6 7.8237 5.6 8.5C5.6 9.1763 5.85286 9.82491 6.30294 10.3031C6.75303 10.7813 7.36348 11.05 8 11.05C8.63652 11.05 9.24697 10.7813 9.69706 10.3031C10.1471 9.82491 10.4 9.1763 10.4 8.5C10.4 7.8237 10.1471 7.1751 9.69706 6.69688C9.24697 6.21866 8.63652 5.95 8 5.95Z" fill="#F5F2EF"/>
</svg>
