<svg width="20" height="19" viewBox="0 0 20 19" fill="none" xmlns="http://www.w3.org/2000/svg">
<path d="M17.3684 0H2.63158C0.526316 0 0 1.75439 0 2.63158V12.1053C0 13.6842 1.05263 14.2105 2.10526 14.2105H7.89474L9.63448 18.1249C9.77524 18.4417 10.2248 18.4417 10.3655 18.1249L12.1053 14.2105H17.3684C19.0526 14.2105 19.8246 12.807 20 12.1053V2.63158C20 0.526316 18.2456 0 17.3684 0Z" fill="#F5F2EF"/>
<path d="M8.67052 8.87342H7.62894V5.50844C7.62894 5.31768 7.24317 5.08298 7.16602 5.0443V4C7.74467 4 8.09186 4.23207 8.32333 4.46414C8.50849 4.64979 8.67052 5.16034 8.67052 5.39241V8.87342Z" fill="#8C7C75"/>
<path d="M12.1418 5.62447C11.6452 5.48579 11.3641 5.46041 10.8687 5.62447C10.4444 5.7405 9.5957 6.25105 9.5957 7.36498C9.5957 8.40928 10.483 8.9121 10.8687 8.98945C11.3578 9.11968 11.632 9.10943 12.1418 8.98945C12.489 8.90774 13.2065 8.29325 13.2991 7.36498C13.3917 6.4367 12.5661 5.81786 12.1418 5.62447Z" fill="#8C7C75"/>
<ellipse cx="11.4474" cy="7.36533" rx="1.8517" ry="1.85654" fill="#8C7C75"/>
<path d="M3 8.87409V4.1167H3.82908C3.92383 4.1167 3.94752 4.27141 3.94752 4.34877V8.52599V8.87409H3Z" fill="#8C7C75"/>
<ellipse cx="5.08263" cy="7.2493" rx="1.5045" ry="1.74051" fill="#8C7C75"/>
<ellipse cx="4.86946" cy="7.31445" rx="0.623368" ry="0.625" fill="#F5F2EF"/>
<ellipse cx="11.4502" cy="7.36466" rx="0.694386" ry="0.696203" fill="#F5F2EF"/>
<path d="M16.5422 5.62402V5.97213C15.1534 5.15989 13.9961 6.32023 13.9961 7.36453C13.9961 8.40884 14.8062 8.98901 15.5006 9.10504C16.0561 9.19787 16.5036 8.91165 16.6579 8.75694C16.6193 8.95033 16.4959 9.38352 16.3107 9.56918C16.1255 9.75483 15.7706 9.80124 15.6163 9.80124V10.7295C15.6549 10.7682 15.8941 10.8223 16.5422 10.7295C17.1903 10.6367 17.5838 9.91728 17.6995 9.56918V5.62402H16.5422Z" fill="#8C7C75"/>
<ellipse cx="15.7869" cy="7.36768" rx="0.63652" ry="0.638186" fill="#F5F2EF"/>
</svg>
