<svg width="30" height="30" viewBox="0 0 30 30" fill="none" xmlns="http://www.w3.org/2000/svg">
<g clip-path="url(#clip0_117_887)">
<path d="M15.8844 4.54518C15.65 4.31084 15.3321 4.1792 15.0007 4.1792C14.6692 4.1792 14.3513 4.31084 14.1169 4.54518L7.04567 11.6164C6.92629 11.7317 6.83106 11.8697 6.76555 12.0222C6.70003 12.1747 6.66555 12.3387 6.66411 12.5047C6.66267 12.6707 6.69429 12.8353 6.75715 12.9889C6.82 13.1425 6.91281 13.2821 7.03018 13.3994C7.14755 13.5168 7.28711 13.6096 7.44073 13.6725C7.59435 13.7353 7.75895 13.7669 7.92492 13.7655C8.0909 13.7641 8.25492 13.7296 8.40743 13.6641C8.55993 13.5985 8.69786 13.5033 8.81317 13.3839L13.7507 8.44643V25.0002C13.7507 25.3317 13.8824 25.6496 14.1168 25.8841C14.3512 26.1185 14.6692 26.2502 15.0007 26.2502C15.3322 26.2502 15.6501 26.1185 15.8846 25.8841C16.119 25.6496 16.2507 25.3317 16.2507 25.0002V8.44643L21.1882 13.3839C21.4239 13.6116 21.7397 13.7376 22.0674 13.7348C22.3952 13.7319 22.7087 13.6005 22.9404 13.3687C23.1722 13.1369 23.3037 12.8234 23.3065 12.4957C23.3094 12.1679 23.1834 11.8522 22.9557 11.6164L15.8844 4.54518Z" fill="#8C7C75"/>
</g>
<defs>
<clipPath id="clip0_117_887">
<rect width="30" height="30" fill="white"/>
</clipPath>
</defs>
</svg>
